<svg xmlns="http://www.w3.org/2000/svg" viewBox="0 0 523.42 192.26">
<path d="M388.86,35v67.55m0,56.6v38.73m50.93-150H327.17m211.09,0H483.14m40.42,124.3V14.78M374.77,181.94h71.59m61.27,0h25.12" transform="translate(-14.84 -14.78)" fill="none" stroke="#1d1d1b" strokeWidth="2.16"/>
<path d="M464.49,99a30.62,30.62,0,1,0-30.61-30.61A30.61,30.61,0,0,0,464.49,99Z" transform="translate(-14.84 -14.78)" fill="none" stroke="#1d1d1b" strokeWidth="10.16"/>
<rect x="353.49" y="87.88" width="53.88" height="53.88" fill="none" stroke="#1d1d1b" strokeWidth="10.16"/>
<polygon points="462.19 117.59 430.65 172.21 493.73 172.21 462.19 117.59" fill="none" stroke="#1d1d1b" strokeWidth="10.16"/>
<path d="M24,207V170.91M97.5,198H14.84" transform="translate(-14.84 -14.78)" fill="none" stroke="#1d1d1b" strokeWidth="2.16"/>
<path d="M327.17,106.7h-10v53.07h10Zm.42-14.27a5.55,5.55,0,0,0-5.49-5.6,5.61,5.61,0,1,0,0,11.21,5.55,5.55,0,0,0,5.49-5.61M307,87.36h-9.93v72.41H307Zm-28.53,32.87c0,8.25-6.88,11.84-26.43,16.07-2-11,3.6-25.05,15.22-25.05,5.81,0,11.21,3.38,11.21,9m10.78.21c0-10.78-10.47-15.75-20.93-15.75-18.5,0-26.85,13.85-26.85,28.65,0,16.49,10.46,28.54,26.74,28.54a27.43,27.43,0,0,0,18.71-6.66,21.94,21.94,0,0,0-3.49-5.5c-5.81,4.76-8.88,5.82-13.53,5.82-9.51,0-14.9-6.13-17-13.64,23.79-5.07,36.37-10.15,36.37-21.46M234.05,106.7H224v53.07h10Zm.43-14.27a5.55,5.55,0,0,0-5.5-5.6A5.61,5.61,0,0,0,229,98a5.55,5.55,0,0,0,5.5-5.61m-14.06,14a24.09,24.09,0,0,0-8.14-1.48c-9.62,0-13.32,4.12-16.07,10a32.07,32.07,0,0,0-1.37-8.25H184.16c.85,2,2.12,8.67,2.12,14.7v38.37h9.93v-29c0-13.1,6.35-19.55,13.74-19.55a15.92,15.92,0,0,1,8.14,2.11,25.71,25.71,0,0,0,2.33-7M177,159.77a20.31,20.31,0,0,0-.21-6.66h-28c-1.69,0-1.9-.43-1.05-1.48l28.75-36.26c3.59-4.44,1.69-8.67-5-8.67H135.54a23.59,23.59,0,0,0,.11,6.66h27.8c1.69,0,2,.53,1.05,1.59L136,151.1c-3.49,4.44-2.22,8.67,5.07,8.67Zm-65.43-31.61H88.93l9.62-32.87a1.86,1.86,0,0,1,3.59,0Zm20.51,31.61L111.76,97c-2-6.24-4.54-10.15-11.41-10.15S90.83,91.06,88.93,97L68.64,159.77H79.73L87,134.4h26.42l7.4,25.37Z" transform="translate(-14.84 -14.78)" fill="#1d1d1b"/>
<path d="M326.75,198.27V186c0-5.09-2.24-7.56-6.56-7.56a8.68,8.68,0,0,0-7.05,3v-2.54h-3.67v19.36h3.67V184a7,7,0,0,1,5.59-3.24c3.2,0,4.43,2.05,4.43,4.82v12.69ZM303,188.59c0,5-2.47,8.1-6.25,8.1s-6.25-3-6.25-8.1c0-4.9,2.2-8,6.25-8s6.25,3.12,6.25,8m3.77,0c0-6.44-4-10.45-10-10.45s-10.06,4-10.06,10.45,4,10.41,10.06,10.41,10-3.86,10-10.41m-22.82-9.72h-3.66v19.36h3.66Zm.16-5.2a2,2,0,0,0-2-2.05,2,2,0,0,0,0,4.09,2,2,0,0,0,2-2m-5.14,23.48a10.53,10.53,0,0,0-1.15-2,4,4,0,0,1-2.78,1.23,2.88,2.88,0,0,1-2.85-3.16V181.34h4.13a5,5,0,0,0,1-2.43h-5.16v-7a5.62,5.62,0,0,0-3.62,1.58v19.2c0,4.32,2.15,6.28,5.35,6.28a7.18,7.18,0,0,0,5.05-1.73m-17.85-6.94a6.15,6.15,0,0,1-6.09,6.32c-1.58,0-3.12-.69-3.12-2.27,0-1.89.31-3.4,3.27-4.4a29.84,29.84,0,0,0,5.94-2.85Zm4.67,8a17.1,17.1,0,0,1-1-5.44v-7.75c0-5.82-3.51-6.82-7.45-6.82a15.57,15.57,0,0,0-8.4,2.35,5.54,5.54,0,0,0,1.27,2,11,11,0,0,1,6.05-2c3.17,0,4.28,1,4.56,2.66.19,1.23-.47,2.85-4.36,4-7,2-8.41,3.9-8.41,7.56,0,2.43,2.51,4.24,5.55,4.24,2.36,0,5,0,7.6-3.82a9.81,9.81,0,0,0,.65,3.09Zm-24.1-9.64c0,4.28-1.89,8-5.59,8s-5.71-3.39-5.71-7.83,2.12-7.63,5.71-7.63,5.59,3,5.59,7.48m4.2,9.64a18.33,18.33,0,0,1-.77-5.36v-21h-3.66v10.41a6.8,6.8,0,0,0-6.33-3.44c-4.58,0-8.55,3.59-8.55,9.95s4,10.14,8.67,10.14a6.85,6.85,0,0,0,6.29-3.62,11.4,11.4,0,0,0,.5,3Zm-21.78,0V186c0-5.09-2.24-7.56-6.56-7.56a8.73,8.73,0,0,0-7.06,3v-2.54h-3.66v19.36h3.66V184a7,7,0,0,1,5.6-3.24c3.2,0,4.43,2.05,4.43,4.82v12.69Zm-20.86,0V178.91h-3.63v14.38a6,6,0,0,1-5.09,3.13c-3.7,0-4.93-1.85-4.93-5.25V178.91h-3.63v11.76c0,5.09,2.39,8.1,6.94,8.1,4.13,0,5.94-2,6.71-2.93v2.43Zm-23.68-9.68c0,5-2.46,8.1-6.24,8.1s-6.25-3-6.25-8.1c0-4.9,2.2-8,6.25-8s6.24,3.12,6.24,8m3.78,0c0-6.44-4-10.45-10-10.45s-10.07,4-10.07,10.45,4,10.41,10.07,10.41,10-3.86,10-10.41m-21.09-14.5a7.81,7.81,0,0,0,.08-2.27H149.8c-1.92,0-2.89,1.11-2.89,3.16v23.25h3.7V185.85h8.22a7.85,7.85,0,0,0,0-2.27h-8.18v-8.91c0-.35.08-.54.5-.54Z" transform="translate(-14.84 -14.78)" fill="#1d1d1b"/>
<path d="M180.63,50.51a1.93,1.93,0,0,0-1.92-1.95,2,2,0,1,0,0,3.91,1.94,1.94,0,0,0,1.92-2M221.45,74V62.24c0-4.87-2.13-7.23-6.27-7.23a8.28,8.28,0,0,0-6.74,2.91V55.49h-3.51V74h3.51V60.36a6.66,6.66,0,0,1,5.34-3.1c3.06,0,4.24,2,4.24,4.61V74ZM198.7,64.75c0,4.75-2.36,7.74-6,7.74s-6-2.87-6-7.74c0-4.68,2.1-7.68,6-7.68s6,3,6,7.68m3.61,0c0-6.15-3.8-10-9.59-10s-9.62,3.84-9.62,10,3.83,10,9.62,10,9.59-3.69,9.59-10m-21.83-9.29H177V74h3.5ZM175.72,73a10.12,10.12,0,0,0-1.1-1.88A3.9,3.9,0,0,1,172,72.27a2.76,2.76,0,0,1-2.73-3V57.81h4a4.79,4.79,0,0,0,1-2.32h-4.94V48.74a5.46,5.46,0,0,0-3.47,1.51V68.62c0,4.13,2.07,6,5.13,6A6.84,6.84,0,0,0,175.72,73m-17.07-6.64a5.89,5.89,0,0,1-5.83,6c-1.51,0-3-.66-3-2.17,0-1.81.3-3.25,3.14-4.21a28.93,28.93,0,0,0,5.68-2.73ZM163.11,74a16.41,16.41,0,0,1-1-5.21V61.39c0-5.57-3.36-6.53-7.12-6.53a14.91,14.91,0,0,0-8,2.25A5.52,5.52,0,0,0,148.21,59a10.52,10.52,0,0,1,5.79-2c3,0,4.09,1,4.35,2.55.18,1.18-.44,2.73-4.17,3.8-6.67,1.92-8,3.72-8,7.23,0,2.32,2.4,4,5.32,4,2.24,0,4.79,0,7.26-3.65a9.07,9.07,0,0,0,.63,3Zm-23.05-9.23c0,4.1-1.81,7.64-5.35,7.64s-5.46-3.25-5.46-7.49,2-7.3,5.46-7.3,5.35,2.91,5.35,7.15m4,9.23a17.5,17.5,0,0,1-.74-5.13V48.74h-3.5v10a6.49,6.49,0,0,0-6.05-3.29c-4.39,0-8.19,3.44-8.19,9.52s3.84,9.7,8.3,9.7a6.53,6.53,0,0,0,6-3.47,10.91,10.91,0,0,0,.48,2.85Zm-20.84,0V62.24c0-4.87-2.14-7.23-6.27-7.23a8.3,8.3,0,0,0-6.75,2.91V55.49h-3.5V74h3.5V60.36a6.68,6.68,0,0,1,5.35-3.1c3.06,0,4.24,2,4.24,4.61V74Zm-22.77-9.26c0,4.75-2.36,7.74-6,7.74s-6-2.87-6-7.74c0-4.68,2.1-7.68,6-7.68s6,3,6,7.68m3.61,0c0-6.15-3.8-10-9.59-10s-9.62,3.84-9.62,10,3.83,10,9.62,10,9.59-3.69,9.59-10M84.81,50.92a7.22,7.22,0,0,0,.08-2.18h-12c-1.85,0-2.77,1.07-2.77,3V74h3.54V62.13h7.86a7.25,7.25,0,0,0,0-2.18H73.71V51.43c0-.33.07-.51.48-.51Z" transform="translate(-14.84 -14.78)" fill="#1d1d1b"/>
</svg>