<svg width="175" height="64" viewBox="0 0 175 64" fill="none" xmlns="http://www.w3.org/2000/svg">
<g clip-path="url(#clip0_440_612)">
<path d="M124.871 60.9422H124.142V56H119.822V55.2889H124.142V48H124.871V55.2889H143.645V56H124.871V60.9422ZM172.462 56H164.107V55.2889H172.462V56ZM169.76 52.4444H169.049V11.36H155.894V10.6667H168.996V0H169.707V10.6667H174.24V11.3778H169.707L169.76 52.4444ZM124.925 29.3333H124.196V11.5556H103.982V10.6667H124.142V6.72H124.871V10.6667H141.458V11.3778H124.871L124.925 29.3333Z" fill="white"/>
<path d="M149.689 29.7246C147.338 29.7281 145.039 29.0349 143.082 27.7325C141.125 26.4302 139.598 24.5771 138.693 22.4072C137.789 20.2374 137.548 17.8483 138 15.5415C138.453 13.2347 139.579 11.1138 141.236 9.44661C142.894 7.77942 145.008 6.64074 147.312 6.17438C149.616 5.70803 152.006 5.93492 154.182 6.82639C156.357 7.71787 158.219 9.23395 159.533 11.1832C160.847 13.1324 161.554 15.4272 161.564 17.778C161.569 19.3422 161.266 20.892 160.671 22.3389C160.077 23.7858 159.204 25.1015 158.101 26.2108C156.998 27.3202 155.688 28.2015 154.244 28.8044C152.801 29.4073 151.253 29.72 149.689 29.7246ZM149.689 9.33354C148.003 9.34063 146.357 9.84788 144.96 10.791C143.563 11.7342 142.477 13.0708 141.84 14.6315C141.203 16.1923 141.044 17.907 141.382 19.5584C141.721 21.2098 142.542 22.7236 143.741 23.9081C144.941 25.0926 146.465 25.8944 148.12 26.212C149.776 26.5297 151.488 26.3488 153.041 25.6923C154.594 25.0359 155.916 23.9334 156.842 22.5245C157.767 21.1155 158.254 19.4636 158.24 17.778C158.221 15.5257 157.311 13.3726 155.708 11.7899C154.106 10.2073 151.941 9.32405 149.689 9.33354Z" fill="#D53644"/>
<path d="M137.298 48.889H115.964V27.5557H137.298V48.889ZM119.36 45.4934H133.92V30.9512H119.36V45.4934Z" fill="#2B7AAB"/>
<path d="M167.289 59.0224H140.462L153.902 35.769L167.289 59.0224ZM146.294 55.6268H161.422L153.867 42.5246L146.294 55.6268Z" fill="#F5AF32"/>
<path d="M3.41333 64.0002H2.70222V61.3335H0V60.6224H2.70222V51.9824H3.41333V60.6224H27.52V61.3335H3.41333V64.0002Z" fill="white"/>
<path d="M103.982 30.5958H100.64V48.2669H103.982V30.5958ZM104.107 25.8491C104.119 25.6083 104.082 25.3675 103.998 25.1414C103.914 24.9154 103.785 24.7088 103.618 24.5341C103.452 24.3595 103.252 24.2206 103.03 24.1257C102.809 24.0309 102.57 23.9821 102.329 23.9824C101.834 23.9824 101.359 24.1791 101.009 24.5292C100.659 24.8792 100.462 25.354 100.462 25.8491C100.462 26.3442 100.659 26.819 101.009 27.169C101.359 27.5191 101.834 27.7158 102.329 27.7158C102.57 27.7161 102.809 27.6673 103.03 27.5725C103.252 27.4776 103.452 27.3386 103.618 27.164C103.785 26.9894 103.914 26.7828 103.998 26.5567C104.082 26.3307 104.119 26.0899 104.107 25.8491ZM97.2621 24.1602H93.9377V48.2669H97.2621V24.1602ZM87.751 35.1113C87.751 37.8491 85.4755 39.0402 78.8621 40.4446C78.2044 36.8891 80.071 32.1069 83.9288 32.1069C84.3719 32.0551 84.8208 32.0921 85.2494 32.2157C85.678 32.3392 86.0777 32.5469 86.4252 32.8265C86.7728 33.1062 87.0611 33.4523 87.2735 33.8445C87.4858 34.2368 87.618 34.6674 87.6621 35.1113H87.751ZM91.2177 35.1113C91.2177 31.5558 87.6622 29.8669 84.2488 29.8669C78.0977 29.8669 75.3599 34.4713 75.3599 39.3958C75.3599 44.8891 78.9155 48.8891 84.2488 48.8891C86.5259 48.9605 88.7468 48.1737 90.471 46.6846C90.1874 46.0319 89.7968 45.4311 89.3155 44.9069C88.7339 45.5149 88.0361 45.9997 87.2634 46.3326C86.4908 46.6655 85.659 46.8396 84.8177 46.8446C83.4907 46.8638 82.1985 46.4199 81.1634 45.5893C80.1284 44.7586 79.4152 43.5932 79.1466 42.2935C87.0755 40.6046 91.2533 38.9158 91.2533 35.1824L91.2177 35.1113ZM72.9066 30.5958H69.6355V48.2669H72.9066V30.5958ZM73.0488 25.8491C73.0609 25.6083 73.0238 25.3675 72.9399 25.1414C72.856 24.9154 72.7269 24.7088 72.5606 24.5341C72.3943 24.3595 72.1942 24.2206 71.9725 24.1257C71.7508 24.0309 71.5122 23.9821 71.271 23.9824C70.776 23.9824 70.3012 24.1791 69.9511 24.5292C69.601 24.8792 69.4044 25.354 69.4044 25.8491C69.4044 26.3442 69.601 26.819 69.9511 27.169C70.3012 27.5191 70.776 27.7158 71.271 27.7158C71.5122 27.7161 71.7508 27.6673 71.9725 27.5725C72.1942 27.4776 72.3943 27.3386 72.5606 27.164C72.7269 26.9894 72.856 26.7828 72.9399 26.5567C73.0238 26.3307 73.0609 26.0899 73.0488 25.8491ZM68.3733 30.4891C67.5443 30.1956 66.6745 30.0336 65.7955 30.0091C64.6608 29.8897 63.5188 30.154 62.5521 30.7599C61.5853 31.3657 60.8494 32.2781 60.4621 33.3513C60.4353 32.4173 60.2859 31.4908 60.0177 30.5958H56.4621C56.9084 32.21 57.1122 33.8816 57.0666 35.5558V48.338H60.4621V38.6313C60.4621 34.258 62.5777 32.1069 65.0488 32.1069C65.9974 32.0943 66.9315 32.3401 67.751 32.818C68.1232 32.0837 68.3867 31.2992 68.5333 30.4891H68.3733ZM54.0621 48.2669C54.1868 47.5314 54.1868 46.7801 54.0621 46.0446H44.5866C44.0177 46.0446 43.9466 45.9024 44.231 45.5469L53.7955 33.4935C55.0044 32.0002 54.3644 30.5958 52.1421 30.5958H40.1777C40.071 31.3327 40.071 32.0811 40.1777 32.818H49.4399C50.0088 32.818 50.1155 32.9958 49.7955 33.3513L40.2844 45.3691C39.1288 46.8624 39.5555 48.2669 41.9733 48.2669H54.0621ZM32.1955 37.7424H24.6755L27.8755 26.8091C27.8933 26.6706 27.9647 26.5446 28.0744 26.4581C28.1841 26.3717 28.3233 26.3318 28.4621 26.3469C28.5323 26.3369 28.6037 26.341 28.6722 26.3589C28.7408 26.3768 28.805 26.4082 28.8613 26.4512C28.9176 26.4942 28.9647 26.5481 29 26.6095C29.0352 26.6709 29.0579 26.7388 29.0666 26.8091L32.1955 37.7424ZM39.0221 48.2669L32.2666 27.3602C31.6088 25.2802 30.7555 23.9824 28.4621 23.9824C26.1688 23.9824 25.2977 25.3869 24.6755 27.3602L17.9199 48.2669H21.5999L24.0355 39.8224H32.8355L35.2888 48.2669H39.0221Z" fill="white"/>
<path d="M103.84 61.0842V56.9776C103.84 55.2887 103.093 54.4709 101.653 54.4709C101.21 54.4478 100.768 54.5272 100.361 54.7029C99.9543 54.8787 99.5933 55.1461 99.3066 55.4842V54.6309H98.0799V61.0842H99.3066V56.3376C99.4974 56.0303 99.7576 55.7721 100.066 55.5838C100.375 55.3954 100.724 55.2822 101.084 55.2531C102.151 55.2531 102.56 55.9287 102.56 56.8531V61.0842H103.84ZM95.911 57.8664C95.911 59.5198 95.0932 60.5509 93.831 60.5509C92.5688 60.5509 91.751 59.5553 91.751 57.8664C91.751 56.1776 92.4621 55.1109 93.831 55.1109C95.1999 55.1109 95.911 56.1598 95.911 57.7953V57.8664ZM97.1732 57.7953C97.1316 57.145 96.9008 56.521 96.5092 56.0002C96.1176 55.4793 95.5823 55.0843 94.9691 54.8637C94.3559 54.6432 93.6916 54.6067 93.058 54.7587C92.4243 54.9108 91.8489 55.2447 91.4026 55.7196C90.9563 56.1944 90.6585 56.7893 90.5459 57.4311C90.4333 58.073 90.5108 58.7338 90.7688 59.3321C91.0268 59.9305 91.4542 60.4404 91.9982 60.7991C92.5423 61.1578 93.1794 61.3496 93.831 61.3509C94.2955 61.3776 94.7602 61.3021 95.1923 61.1298C95.6245 60.9574 96.0136 60.6924 96.3323 60.3534C96.6509 60.0144 96.8914 59.6097 97.0367 59.1677C97.182 58.7257 97.2286 58.2573 97.1732 57.7953ZM89.5643 54.5598H88.3554V61.0131H89.5643V54.5598ZM89.5643 52.782C89.5667 52.6941 89.5515 52.6067 89.5195 52.5248C89.4875 52.4429 89.4394 52.3683 89.3781 52.3053C89.3168 52.2424 89.2434 52.1923 89.1625 52.1582C89.0815 52.124 88.9945 52.1064 88.9066 52.1064C88.7274 52.1064 88.5556 52.1776 88.4289 52.3043C88.3022 52.431 88.231 52.6028 88.231 52.782C88.231 52.9612 88.3022 53.133 88.4289 53.2597C88.5556 53.3864 88.7274 53.4576 88.9066 53.4576C88.9945 53.4576 89.0815 53.44 89.1625 53.4058C89.2434 53.3717 89.3168 53.3216 89.3781 53.2587C89.4394 53.1957 89.4875 53.1211 89.5195 53.0392C89.5515 52.9573 89.5667 52.8699 89.5643 52.782ZM87.7866 60.6042C87.6954 60.3677 87.5696 60.146 87.4132 59.9464C87.1646 60.19 86.8362 60.3352 86.4888 60.3553C86.3549 60.3559 86.2223 60.3285 86.0997 60.2748C85.977 60.2211 85.8669 60.1423 85.7765 60.0435C85.6861 59.9447 85.6173 59.8281 85.5747 59.7012C85.532 59.5742 85.5164 59.4398 85.5288 59.3064V55.4487H87.1288C87.3085 55.2089 87.4247 54.9276 87.4666 54.6309H85.6888V52.2842C85.2361 52.3164 84.8088 52.5049 84.4799 52.8176V59.1998C84.4799 60.6398 85.2088 61.2976 86.2577 61.2976C86.8673 61.3308 87.4661 61.1269 87.9288 60.7287L87.7866 60.6042ZM81.991 58.4176C81.9867 58.9446 81.7791 59.4496 81.4114 59.8273C81.0437 60.2049 80.5444 60.4259 80.0177 60.4442C79.4843 60.4442 78.9688 60.2131 78.9688 59.6798C78.9688 59.1464 79.0755 58.5598 80.071 58.222C80.7573 57.9716 81.4181 57.6561 82.0443 57.2798L81.991 58.4176ZM83.5377 61.0842C83.3393 60.5119 83.2313 59.9121 83.2177 59.3064V56.6931C83.2177 54.7553 82.0443 54.4176 80.7288 54.4176C79.7433 54.4099 78.7757 54.6811 77.9377 55.1998C78.0268 55.4544 78.1727 55.6854 78.3643 55.8753C78.9342 55.4228 79.6292 55.1559 80.3554 55.1109C81.4043 55.1109 81.7777 55.4664 81.8666 55.9998C81.9555 56.5331 81.7243 56.9598 80.4266 57.3331C78.0977 57.9909 77.6177 58.6131 77.6177 59.8398C77.6177 60.6576 78.4532 61.2442 79.3955 61.2442C79.8958 61.3011 80.4019 61.2122 80.8529 60.9883C81.3039 60.7644 81.6806 60.4149 81.9377 59.982C81.9486 60.3355 82.0208 60.6843 82.151 61.0131L83.5377 61.0842ZM75.5199 57.8664C75.5199 59.2887 74.8977 60.5331 73.6532 60.5331C72.4088 60.5331 71.7688 59.3953 71.7688 57.9198C71.7688 56.4442 72.4621 55.3776 73.6532 55.3776C74.8443 55.3776 75.5199 56.3909 75.5199 57.8664ZM76.9243 61.0842C76.7457 60.5086 76.6558 59.9091 76.6577 59.3064V52.2842H75.4488V55.8398C75.239 55.4703 74.9291 55.1675 74.5549 54.9662C74.1806 54.7649 73.7572 54.6733 73.3332 54.702C72.9238 54.7165 72.5218 54.8156 72.1525 54.993C71.7832 55.1704 71.4546 55.4223 71.1875 55.7329C70.9203 56.0435 70.7203 56.406 70.6 56.7977C70.4798 57.1894 70.4419 57.6017 70.4888 58.0087C70.4393 58.4241 70.4766 58.8452 70.5984 59.2455C70.7201 59.6457 70.9236 60.0163 71.196 60.3338C71.4684 60.6513 71.8038 60.9088 72.1808 61.09C72.5579 61.2712 72.9685 61.3722 73.3866 61.3864C73.8123 61.4037 74.2342 61.2991 74.6026 61.0849C74.9711 60.8708 75.2708 60.556 75.4666 60.1776C75.4825 60.5157 75.5422 60.8504 75.6443 61.1731L76.9243 61.0842ZM69.671 61.0842V56.9776C69.671 55.2887 68.9243 54.4709 67.4843 54.4709C67.0418 54.4491 66.6001 54.5292 66.1932 54.7048C65.7864 54.8805 65.4253 55.1471 65.1377 55.4842V54.6309H63.9288V61.0842H65.1377V56.3376C65.3393 56.0206 65.6141 55.7566 65.9389 55.5679C66.2637 55.3792 66.6291 55.2713 67.0043 55.2531C68.071 55.2531 68.4799 55.9287 68.4799 56.8531V61.0842H69.671ZM62.7199 61.0842V54.6309H61.511V59.4309C61.3452 59.7362 61.1017 59.9924 60.8051 60.1734C60.5086 60.3545 60.1695 60.454 59.8221 60.462C58.5955 60.462 58.1866 59.8398 58.1866 58.6842V54.5953H56.9066V58.5242C56.9066 60.302 57.7066 61.2087 59.2177 61.2087C59.6397 61.2392 60.0628 61.166 60.4502 60.9956C60.8375 60.8252 61.1773 60.5627 61.4399 60.2309V61.0487L62.7199 61.0842ZM54.8443 57.8664C54.8443 59.5198 54.0266 60.5509 52.7643 60.5509C51.5021 60.5509 50.6844 59.5553 50.6844 57.8664C50.6844 56.1776 51.3955 55.1109 52.7466 55.1109C54.0977 55.1109 54.8266 56.1598 54.8266 57.7953L54.8443 57.8664ZM56.0888 57.7953C56.0472 57.145 55.8164 56.521 55.4248 56.0002C55.0332 55.4793 54.4979 55.0843 53.8847 54.8637C53.2715 54.6432 52.6072 54.6067 51.9735 54.7587C51.3399 54.9108 50.7645 55.2447 50.3182 55.7196C49.8718 56.1944 49.574 56.7893 49.4614 57.4311C49.3488 58.073 49.4263 58.7338 49.6844 59.3321C49.9424 59.9305 50.3698 60.4404 50.9138 60.7991C51.4579 61.1578 52.0949 61.3496 52.7466 61.3509C53.2111 61.3776 53.6757 61.3021 54.1079 61.1298C54.5401 60.9574 54.9292 60.6924 55.2478 60.3534C55.5665 60.0144 55.8069 59.6097 55.9522 59.1677C56.0975 58.7257 56.1441 58.2573 56.0888 57.7953ZM49.0666 52.9776C49.1111 52.7247 49.1111 52.466 49.0666 52.2131H44.9244C44.2844 52.2131 43.9644 52.5864 43.9644 53.262V61.0131H45.2088V56.8887H48.0177C48.062 56.6417 48.062 56.3889 48.0177 56.142H45.2088V53.2264C45.2088 53.102 45.2088 53.0487 45.3688 53.0487L49.0666 52.9776Z" fill="white"/>
<path d="M55.1291 11.8934C55.1291 11.7237 55.0617 11.5609 54.9416 11.4409C54.8216 11.3208 54.6588 11.2534 54.4891 11.2534C54.3177 11.2534 54.153 11.3202 54.0301 11.4397C53.9073 11.5593 53.8359 11.7221 53.8313 11.8934C53.8358 12.0665 53.9066 12.2312 54.0289 12.3536C54.1513 12.476 54.316 12.5467 54.4891 12.5512C54.6604 12.5466 54.8232 12.4752 54.9428 12.3524C55.0623 12.2295 55.1291 12.0648 55.1291 11.8934ZM68.7113 19.7156V15.8045C68.7113 14.1868 68.0002 13.3868 66.6313 13.3868C66.2053 13.3664 65.7803 13.4439 65.3889 13.6134C64.9975 13.7829 64.6501 14.0399 64.3735 14.3645V13.5468H63.218V19.7156H64.3735V15.1645C64.5682 14.8652 64.8306 14.616 65.1394 14.4368C65.4482 14.2577 65.7949 14.1538 66.1513 14.1334C67.1824 14.1334 67.5735 14.7912 67.5735 15.6801V19.7156H68.7113ZM61.138 16.6401C61.138 18.2223 60.3558 19.2179 59.1469 19.2179C57.938 19.2179 57.1558 18.2579 57.1558 16.6401C57.1558 15.0223 57.8669 14.0801 59.1469 14.0801C60.4269 14.0801 61.138 15.0756 61.138 16.6401ZM62.3469 16.6401C62.3469 15.7914 62.0097 14.9775 61.4096 14.3773C60.8095 13.7772 59.9956 13.4401 59.1469 13.4401C58.2982 13.4401 57.4842 13.7772 56.8841 14.3773C56.284 14.9775 55.9469 15.7914 55.9469 16.6401C55.9469 17.4888 56.284 18.3027 56.8841 18.9028C57.4842 19.5029 58.2982 19.8401 59.1469 19.8401C59.9956 19.8401 60.8095 19.5029 61.4096 18.9028C62.0097 18.3027 62.3469 17.4888 62.3469 16.6401V16.6401ZM55.1291 13.5468H53.9558V19.7156H55.1291V13.5468ZM53.5469 19.3779C53.4409 19.1543 53.316 18.9402 53.1735 18.7379C53.0614 18.8634 52.9245 18.9644 52.7716 19.0348C52.6187 19.1051 52.4529 19.1432 52.2846 19.1468C52.1569 19.1449 52.0309 19.1166 51.9146 19.0636C51.7984 19.0106 51.6944 18.934 51.6092 18.8388C51.524 18.7436 51.4595 18.6318 51.4197 18.5103C51.3799 18.3889 51.3657 18.2606 51.378 18.1334V14.329H52.6935C52.8718 14.1018 52.9882 13.8323 53.0313 13.5468H51.3958V11.3068C50.9628 11.3263 50.5518 11.5033 50.2402 11.8045V17.9201C50.2402 19.3068 50.9335 19.929 52.018 19.929C52.6076 19.9569 53.1858 19.7599 53.6358 19.3779H53.5469ZM47.9469 17.1556C47.9539 17.4163 47.9093 17.6757 47.8155 17.919C47.7218 18.1623 47.5807 18.3846 47.4005 18.573C47.2204 18.7615 47.0046 18.9123 46.7658 19.0169C46.527 19.1215 46.2698 19.1777 46.0091 19.1823C45.5113 19.1823 45.0135 18.9512 45.0135 18.4534C44.9724 18.1291 45.0588 17.8014 45.2544 17.5394C45.4501 17.2775 45.7397 17.1016 46.0624 17.049C46.7223 16.8176 47.3543 16.5135 47.9469 16.1423V17.1556ZM49.4402 19.7156C49.2332 19.1456 49.125 18.5443 49.1202 17.9379V15.5201C49.1202 13.7423 48.0002 13.3512 46.738 13.3512C45.796 13.3399 44.8705 13.599 44.0713 14.0979C44.1567 14.3398 44.2966 14.5587 44.4802 14.7379C45.0392 14.33 45.7085 14.1007 46.4002 14.0801C47.4135 14.0801 47.7691 14.4179 47.8402 14.9334C47.9113 15.449 47.698 15.8401 46.4535 16.1956C44.2313 16.8356 43.7869 17.4401 43.7869 18.5956C43.7869 19.3779 44.5869 19.9468 45.5646 19.9468C46.0415 20.0019 46.5241 19.9169 46.9535 19.7022C47.3828 19.4875 47.7404 19.1524 47.9824 18.7379C48.0003 19.0732 48.0723 19.4034 48.1957 19.7156H49.4402ZM41.7602 16.6401C41.7602 18.009 41.1557 19.1823 39.9824 19.1823C38.8091 19.1823 38.2046 18.1156 38.2046 16.6934C38.2046 15.2712 38.8802 14.2579 39.9824 14.2579C41.0846 14.2579 41.7602 15.2356 41.7602 16.6401ZM43.0935 19.7156C42.9248 19.1382 42.841 18.5394 42.8446 17.9379V11.3068H41.618V14.6134C41.4155 14.2652 41.1208 13.9796 40.7663 13.7882C40.4118 13.5969 40.0113 13.5071 39.6091 13.529C39.2152 13.5385 38.8276 13.6303 38.4713 13.7985C38.115 13.9666 37.7977 14.2074 37.54 14.5054C37.2822 14.8033 37.0895 15.1519 36.9744 15.5287C36.8592 15.9055 36.8241 16.3022 36.8713 16.6934C36.8244 17.0911 36.8604 17.4941 36.977 17.8772C37.0936 18.2602 37.2884 18.6149 37.549 18.9189C37.8095 19.2229 38.1303 19.4696 38.491 19.6435C38.8517 19.8173 39.2445 19.9145 39.6446 19.929C40.0512 19.9406 40.4528 19.8386 40.8046 19.6344C41.1563 19.4303 41.4441 19.1321 41.6358 18.7734C41.6464 19.0933 41.7003 19.4102 41.7958 19.7156H43.0935ZM36.1602 19.7156V15.8045C36.1602 14.1868 35.4491 13.3868 34.0802 13.3868C33.6542 13.3664 33.2291 13.4439 32.8378 13.6134C32.4464 13.7829 32.099 14.0399 31.8224 14.3645V13.5468H30.5957V19.7156H31.7513V15.1645C31.946 14.8652 32.2083 14.616 32.5172 14.4368C32.826 14.2577 33.1726 14.1538 33.5291 14.1334C34.5602 14.1334 34.9513 14.7912 34.9513 15.6801V19.7156H36.1602ZM28.4624 16.6401C28.4624 18.2223 27.6802 19.2179 26.4713 19.2179C25.2624 19.2179 24.4802 18.2579 24.4802 16.6401C24.4802 15.0223 25.1735 14.0801 26.4713 14.0801C27.7691 14.0801 28.4624 15.0756 28.4624 16.6401ZM29.6535 16.6401C29.6863 16.201 29.6281 15.7599 29.4826 15.3443C29.3371 14.9287 29.1074 14.5476 28.8079 14.2249C28.5084 13.9022 28.1455 13.6447 27.7419 13.4687C27.3383 13.2926 26.9027 13.2017 26.4624 13.2017C26.0221 13.2017 25.5865 13.2926 25.1829 13.4687C24.7794 13.6447 24.4164 13.9022 24.1169 14.2249C23.8174 14.5476 23.5877 14.9287 23.4422 15.3443C23.2967 15.7599 23.2385 16.201 23.2713 16.6401C23.2385 17.0792 23.2967 17.5203 23.4422 17.9359C23.5877 18.3515 23.8174 18.7325 24.1169 19.0553C24.4164 19.378 24.7794 19.6355 25.1829 19.8115C25.5865 19.9876 26.0221 20.0784 26.4624 20.0784C26.9027 20.0784 27.3383 19.9876 27.7419 19.8115C28.1455 19.6355 28.5084 19.378 28.8079 19.0553C29.1074 18.7325 29.3371 18.3515 29.4826 17.9359C29.6281 17.5203 29.6863 17.0792 29.6535 16.6401V16.6401ZM23.2535 12.0356C23.289 11.794 23.289 11.5484 23.2535 11.3068H19.3424C18.738 11.3068 18.418 11.6623 18.418 12.3201V19.7156H19.5735V15.769H22.1869C22.2226 15.5273 22.2226 15.2817 22.1869 15.0401H19.5735V12.1956C19.5735 12.089 19.5735 12.0356 19.7335 12.0356H23.2535Z" fill="white"/>
</g>
<defs>
<clipPath id="clip0_440_612">
<rect width="174.24" height="64" fill="white"/>
</clipPath>
</defs>
</svg>
