<svg xmlns="http://www.w3.org/2000/svg" viewBox="0 0 248.45 106.17"><rect width="248.45" height="106.17" fill="none"/><path d="M102.81,82V68.86h-.1c-.47.43-2.19.47-2.92.47H98.52v.1c1.47.9,1.27,2.23,1.27,3.88v5.55c0,2.78-2.73,4.72-4.92,4.72-2.9,0-4.1-2-4.1-5.37V68.86h-.1c-.46.43-2.2.47-2.93.47H86.49v.1c1.46.9,1.26,2.23,1.26,3.88v5.53c0,5.06,2.2,7.47,6.12,7.47,2.33,0,4.72-.83,5.92-2.8V85.9h4.28v-.11C102.61,85,102.81,83.63,102.81,82Z" transform="translate(0.18 0.15)" fill="#fff"/><path d="M109.45,75a4.23,4.23,0,0,1,4.3-3.68A3.92,3.92,0,0,1,118,75Zm12.08,2.09c.13-4.63-3-8.12-7.49-8.12-5,0-8.31,3.6-8.31,8.59s3.89,8.86,9.55,8.86a11.28,11.28,0,0,0,4.59-.89l1.66-3.37h-.1A8.33,8.33,0,0,1,116,84c-3.75,0-6.58-2.57-6.65-7Z" transform="translate(0.18 0.15)" fill="#fff"/><path d="M124.17,61.25c.8,0,2.43,0,2.92-.54h.1V83.42a10.24,10.24,0,0,0,2.74.43c3.64,0,5.72-2.54,5.72-6.09s-1.62-6.16-5-6.16a5.4,5.4,0,0,0-2.78.79l1.79-3.06a6.53,6.53,0,0,1,2.35-.4c3.77,0,7,3.28,7,8.19,0,5.62-3.8,9.25-9.82,9.25a37.72,37.72,0,0,1-6-.65v-.1c1.1-.51,1-1.7,1-2.88V66.23c0-1.66.2-4-1.23-4.88v-.1Z" transform="translate(0.18 0.15)" fill="#fff"/><path d="M144.93,75a4.22,4.22,0,0,1,4.29-3.68,3.92,3.92,0,0,1,4.3,3.68ZM157,77.05c.14-4.63-3-8.12-7.49-8.12-5,0-8.31,3.6-8.31,8.59s3.89,8.86,9.54,8.86a11.3,11.3,0,0,0,4.6-.89L157,82.12h-.1A8.33,8.33,0,0,1,151.45,84c-3.76,0-6.58-2.57-6.65-7Z" transform="translate(0.18 0.15)" fill="#fff"/><path d="M171.89,73.05h-.1a5.25,5.25,0,0,0-4.06-1.77,5.52,5.52,0,0,0-5.55,5.87A6.76,6.76,0,0,0,169.1,84,8.2,8.2,0,0,0,174,82.27h.1l-1.73,3.4a11.65,11.65,0,0,1-4.4.71c-5.12,0-9.13-3.61-9.13-8.29,0-6.19,4.48-9.16,9.5-9.16a15.46,15.46,0,0,1,3.59.43Z" transform="translate(0.18 0.15)" fill="#fff"/><path d="M117.38,66v-3.6a15.4,15.4,0,0,0-5.56,4.58v1.41A15,15,0,0,1,117.38,66Z" transform="translate(0.18 0.15)" fill="#fff" fill-rule="evenodd"/><path d="M72.79,83.9c-5,0-8.52-5.67-8.52-10.48v-.54c.06-4.67,3.08-9,8.35-9,5.55,0,8.41,5.25,8.46,10.22v.52C81.08,79.87,77.78,83.9,72.79,83.9ZM90,89.41c-3.72.61-7.28-.56-11.07-4.9,3.66-1.83,5.92-6.41,5.92-10.66v-.53A11.81,11.81,0,0,0,72.82,61.24,12.21,12.21,0,0,0,60.48,73.57v.49c0,7.14,5.29,12.43,11.78,12.43A11.94,11.94,0,0,0,75,86.14c4.25,4,8,5.67,11.31,5.28a6.17,6.17,0,0,0,4.18-2.09Z" transform="translate(0.18 0.15)" fill="#fff"/><path d="M28.21,21.83a4,4,0,0,0-2.18-.6,3.24,3.24,0,0,0-3.52,3.55,2.32,2.32,0,0,0,2.62,2.35,4.86,4.86,0,0,0,2.19-.57l-.24,2.12a10.22,10.22,0,0,1-2.51.34C21.65,29,20,27.38,20,24.71A5.33,5.33,0,0,1,21.41,21a5.52,5.52,0,0,1,4.29-1.6,10,10,0,0,1,3.12.54Z" transform="translate(0.18 0.15)" fill="#fff"/><path d="M30.66,26c.09,1,.65,1.47,1.74,1.47A5.75,5.75,0,0,0,34.72,27l-.27,1.68a8.44,8.44,0,0,1-2.51.39,3.07,3.07,0,0,1-3.41-3.19,4.3,4.3,0,0,1,1.22-3,4.17,4.17,0,0,1,3-1.07,2.65,2.65,0,0,1,2.93,2.93,6.47,6.47,0,0,1-.16,1.3Zm3.09-1.63a1.13,1.13,0,0,0-1.19-1.23c-.73,0-1.33.57-1.6,1.55h2.77C33.74,24.6,33.75,24.5,33.75,24.39Z" transform="translate(0.18 0.15)" fill="#fff"/><path d="M43.54,28.81H41.17l.72-3.41a3.56,3.56,0,0,0,.08-.68c0-.64-.33-1-.86-1-.94,0-1.56.74-1.88,2.22l-.61,2.87H36.24L37.7,22h2.13l-.27,1.21a3.44,3.44,0,0,1,2.59-1.32,2.1,2.1,0,0,1,2.23,2.38,9.3,9.3,0,0,1-.26,1.88Z" transform="translate(0.18 0.15)" fill="#fff"/><path d="M49.5,22h1.68l-.35,1.63H49.15L48.65,26a2.75,2.75,0,0,0-.09.59c0,.49.21.7.74.7a3.19,3.19,0,0,0,.78-.13l-.35,1.63a8.37,8.37,0,0,1-1.31.14,2,2,0,0,1-2.22-2.06,3.73,3.73,0,0,1,.07-.68l.54-2.56H45.42L45.77,22h1.39l.34-1.61L50,19.74Z" transform="translate(0.18 0.15)" fill="#fff"/><path d="M57,24a4.06,4.06,0,0,0-1-.19c-1.09,0-1.56.68-1.87,2.1l-.63,2.94H51L52.43,22h2.16l-.25,1.24a2.63,2.63,0,0,1,2.25-1.4,3.29,3.29,0,0,1,.9.14Z" transform="translate(0.18 0.15)" fill="#fff"/><path d="M59.47,26c.09,1,.65,1.47,1.75,1.47A5.71,5.71,0,0,0,63.53,27l-.26,1.68a8.51,8.51,0,0,1-2.52.39,3.07,3.07,0,0,1-3.41-3.19,4.35,4.35,0,0,1,1.22-3,4.19,4.19,0,0,1,3-1.07,2.65,2.65,0,0,1,2.92,2.93,5.82,5.82,0,0,1-.16,1.3Zm3.1-1.63a1.13,1.13,0,0,0-1.19-1.23c-.73,0-1.34.57-1.6,1.55h2.76C62.55,24.6,62.57,24.5,62.57,24.39Z" transform="translate(0.18 0.15)" fill="#fff"/><path d="M28.73,32.86,26.79,42H24.68l.25-1.14a3,3,0,0,1-2.49,1.34c-1.61,0-2.66-1.15-2.66-3,0-2.47,1.5-4.15,3.61-4.15a2.4,2.4,0,0,1,2.24,1.33l.75-3.53Zm-4.81,4c-.91,0-1.7,1-1.7,2.34a1.18,1.18,0,0,0,1.17,1.32,2.08,2.08,0,0,0,1.8-2.28A1.27,1.27,0,0,0,23.92,36.82Z" transform="translate(0.18 0.15)" fill="#fff"/><path d="M31,39.25c.09,1,.65,1.47,1.75,1.47A5.71,5.71,0,0,0,35,40.2l-.26,1.68a8.49,8.49,0,0,1-2.51.39c-2.15,0-3.42-1.26-3.42-3.19a4.35,4.35,0,0,1,1.22-3,4.17,4.17,0,0,1,3-1.07A2.65,2.65,0,0,1,36,38a5.82,5.82,0,0,1-.16,1.3Zm3.1-1.63a1.13,1.13,0,0,0-1.19-1.23c-.73,0-1.34.57-1.6,1.55H34C34,37.83,34.06,37.73,34.06,37.62Z" transform="translate(0.18 0.15)" fill="#fff"/><path d="M46.53,37a5.63,5.63,0,0,0-1.8-.39c-.68,0-1,.26-1,.63s.54.53,1.4.88,1.39.9,1.39,1.68c0,1.45-1.19,2.48-3.22,2.48a8.41,8.41,0,0,1-2.71-.44L41,40.15a4.21,4.21,0,0,0,1.9.46c.79,0,1.2-.22,1.2-.61s-.4-.56-1-.8c-1.11-.45-1.7-.88-1.7-1.92,0-1.23,1.17-2.24,3.22-2.24a8.23,8.23,0,0,1,2.4.41Z" transform="translate(0.18 0.15)" fill="#fff"/><path d="M49.74,39.25c.09,1,.64,1.47,1.74,1.47a5.75,5.75,0,0,0,2.32-.52l-.27,1.68a8.49,8.49,0,0,1-2.51.39c-2.15,0-3.41-1.26-3.41-3.19a4.34,4.34,0,0,1,1.21-3,4.21,4.21,0,0,1,3-1.07A2.66,2.66,0,0,1,54.78,38a6.47,6.47,0,0,1-.16,1.3Zm3.09-1.63a1.13,1.13,0,0,0-1.19-1.23c-.73,0-1.34.57-1.6,1.55H52.8A1.73,1.73,0,0,0,52.83,37.62Z" transform="translate(0.18 0.15)" fill="#fff"/><path d="M61.31,37.19a4.06,4.06,0,0,0-1-.19c-1.09,0-1.56.68-1.87,2.1L57.78,42H55.4l1.39-6.83h2.15l-.25,1.25a2.63,2.63,0,0,1,2.25-1.4,3.29,3.29,0,0,1,.9.14Z" transform="translate(0.18 0.15)" fill="#fff"/><path d="M64.27,35.24l.53,4.9,2.42-4.9h2.49l-4,6.8H63.06l-1.14-6.8Z" transform="translate(0.18 0.15)" fill="#fff"/><path d="M73.39,35.23,71.91,42H69.59l1.49-6.81Zm.49-2.37-.24,1.22H71.33l.22-1.22Z" transform="translate(0.18 0.15)" fill="#fff"/><path d="M80,37.13a3.5,3.5,0,0,0-1.45-.35,1.92,1.92,0,0,0-2.1,1.95,1.6,1.6,0,0,0,1.76,1.67,3.27,3.27,0,0,0,1.34-.32l-.27,1.8a7.57,7.57,0,0,1-1.95.28A3.06,3.06,0,0,1,74,39c0-2.3,1.65-4,4.31-4a6.13,6.13,0,0,1,2.28.45Z" transform="translate(0.18 0.15)" fill="#fff"/><path d="M82.81,39.25c.09,1,.65,1.47,1.75,1.47a5.74,5.74,0,0,0,2.31-.52l-.26,1.68a8.56,8.56,0,0,1-2.52.39,3.07,3.07,0,0,1-3.41-3.19,4.35,4.35,0,0,1,1.22-3,4.17,4.17,0,0,1,3-1.07A2.65,2.65,0,0,1,87.85,38a5.82,5.82,0,0,1-.16,1.3Zm3.1-1.63a1.14,1.14,0,0,0-1.2-1.23c-.72,0-1.33.57-1.6,1.55h2.77C85.89,37.83,85.91,37.73,85.91,37.62Z" transform="translate(0.18 0.15)" fill="#fff"/><path d="M94.31,37a5.74,5.74,0,0,0-1.8-.39c-.69,0-1.06.26-1.06.63s.54.53,1.4.88,1.39.9,1.39,1.68c0,1.45-1.19,2.48-3.21,2.48a8.42,8.42,0,0,1-2.72-.44l.49-1.64a4.22,4.22,0,0,0,1.91.46c.78,0,1.19-.22,1.19-.61s-.4-.56-1-.8c-1.12-.45-1.71-.88-1.71-1.92,0-1.23,1.18-2.24,3.23-2.24a8.16,8.16,0,0,1,2.39.41Z" transform="translate(0.18 0.15)" fill="#fff"/><path d="M105,37a5.74,5.74,0,0,0-1.8-.39c-.69,0-1.06.26-1.06.63s.54.53,1.4.88,1.39.9,1.39,1.68c0,1.45-1.19,2.48-3.22,2.48A8.41,8.41,0,0,1,99,41.79l.49-1.64a4.22,4.22,0,0,0,1.91.46c.78,0,1.19-.22,1.19-.61s-.4-.56-1-.8c-1.12-.45-1.71-.88-1.71-1.92,0-1.23,1.18-2.24,3.23-2.24a8.22,8.22,0,0,1,2.39.41Z" transform="translate(0.18 0.15)" fill="#fff"/><path d="M112,37.13a3.5,3.5,0,0,0-1.45-.35,1.93,1.93,0,0,0-2.11,1.95,1.6,1.6,0,0,0,1.76,1.67,3.32,3.32,0,0,0,1.35-.32l-.28,1.8a7.5,7.5,0,0,1-1.94.28A3.06,3.06,0,0,1,106,39c0-2.3,1.65-4,4.31-4a6,6,0,0,1,2.27.45Z" transform="translate(0.18 0.15)" fill="#fff"/><path d="M120.55,38.26c0,2.33-1.69,4-4.4,4-2.18,0-3.49-1.2-3.49-3.11,0-2.43,1.64-4.07,4.36-4.07C119.23,35.06,120.55,36.27,120.55,38.26Zm-3.66-1.64c-1,0-1.83,1-1.83,2.48a1.39,1.39,0,0,0,1.31,1.54c1,0,1.79-1,1.79-2.49C118.16,37.2,117.64,36.62,116.89,36.62Z" transform="translate(0.18 0.15)" fill="#fff"/><path d="M125.59,32.87l-2,9.17h-2.35l2-9.17Z" transform="translate(0.18 0.15)" fill="#fff"/><path d="M132.41,40.32a11.66,11.66,0,0,0-.28,1.72h-2l.13-1a2.7,2.7,0,0,1-2.35,1.18,2,2,0,0,1-2.28-2c0-1.52,1.4-2.47,4-2.47.34,0,.71,0,1.1.06a1.62,1.62,0,0,0,0-.22c0-.69-.45-1.06-1.31-1.06a4.83,4.83,0,0,0-2.22.52l.28-1.59a6.73,6.73,0,0,1,2.26-.4c2.05,0,3.16.86,3.16,2.17a6.26,6.26,0,0,1-.15,1.22Zm-2.59-1.41c-1.28,0-1.94.37-1.94,1.05a.79.79,0,0,0,.88.77,1.87,1.87,0,0,0,1.73-1.8C130.25,38.91,130,38.91,129.82,38.91Z" transform="translate(0.18 0.15)" fill="#fff"/><path d="M137.62,35.23,136.14,42h-2.32l1.49-6.81Zm.49-2.37-.24,1.22h-2.31l.22-1.22Z" transform="translate(0.18 0.15)" fill="#fff"/><path d="M143.94,37.19a4,4,0,0,0-1-.19c-1.08,0-1.56.68-1.86,2.1L140.41,42H138l1.39-6.83h2.16l-.25,1.25a2.63,2.63,0,0,1,2.24-1.4,3.18,3.18,0,0,1,.9.14Z" transform="translate(0.18 0.15)" fill="#fff"/><path d="M146.46,39.25c.09,1,.65,1.47,1.74,1.47a5.75,5.75,0,0,0,2.32-.52l-.27,1.68a8.44,8.44,0,0,1-2.51.39,3.07,3.07,0,0,1-3.41-3.19,4.34,4.34,0,0,1,1.21-3,4.22,4.22,0,0,1,3-1.07A2.65,2.65,0,0,1,151.5,38a5.82,5.82,0,0,1-.16,1.3Zm3.09-1.63a1.13,1.13,0,0,0-1.19-1.23c-.72,0-1.33.57-1.6,1.55h2.77C149.54,37.83,149.55,37.73,149.55,37.62Z" transform="translate(0.18 0.15)" fill="#fff"/><path d="M28.73,46.09l-1.94,9.18H24.68l.25-1.14a3,3,0,0,1-2.49,1.34c-1.61,0-2.66-1.15-2.66-3,0-2.47,1.5-4.15,3.61-4.15a2.4,2.4,0,0,1,2.24,1.33l.75-3.53Zm-4.81,4c-.91,0-1.7,1-1.7,2.34a1.18,1.18,0,0,0,1.17,1.32,2.08,2.08,0,0,0,1.8-2.28A1.27,1.27,0,0,0,23.92,50.05Z" transform="translate(0.18 0.15)" fill="#fff"/><path d="M31,52.48c.09,1,.65,1.47,1.75,1.47A5.71,5.71,0,0,0,35,53.43l-.26,1.68a8.49,8.49,0,0,1-2.51.39c-2.15,0-3.42-1.26-3.42-3.19a4.35,4.35,0,0,1,1.22-3,4.17,4.17,0,0,1,3-1.07A2.65,2.65,0,0,1,36,51.18a5.82,5.82,0,0,1-.16,1.3Zm3.1-1.63a1.13,1.13,0,0,0-1.19-1.23c-.73,0-1.34.57-1.6,1.55H34C34,51.06,34.06,51,34.06,50.85Z" transform="translate(0.18 0.15)" fill="#fff"/><path d="M46.35,46.09l.2,4.67c0,.29,0,.54,0,.73s0,.65,0,1.11a13.2,13.2,0,0,1,.74-1.88l2.13-4.63h3.94l-2,9.17H49.09l1.15-5.53c.13-.65.3-1.34.5-2h-.08l-3.57,7.58H44.83l-.33-7.58h-.11c-.23,1.29-.36,2-.4,2.21l-1.16,5.37H40.58l2-9.17Z" transform="translate(0.18 0.15)" fill="#fff"/><path d="M61.38,51.49c0,2.33-1.7,4-4.41,4-2.18,0-3.49-1.2-3.49-3.11,0-2.43,1.64-4.07,4.36-4.07C60.05,48.29,61.38,49.5,61.38,51.49Zm-3.67-1.64c-1,0-1.82,1-1.82,2.48a1.38,1.38,0,0,0,1.31,1.54c.95,0,1.78-1,1.78-2.49C59,50.43,58.47,49.85,57.71,49.85Z" transform="translate(0.18 0.15)" fill="#fff"/><path d="M69.24,55.27H66.87l.71-3.41a3.56,3.56,0,0,0,.08-.68c0-.65-.33-1-.86-1-.94,0-1.56.74-1.88,2.22l-.61,2.87H61.93l1.46-6.86h2.13l-.27,1.21a3.44,3.44,0,0,1,2.6-1.32,2.1,2.1,0,0,1,2.22,2.38,9.9,9.9,0,0,1-.25,1.88Z" transform="translate(0.18 0.15)" fill="#fff"/><path d="M75.19,48.47h1.68l-.34,1.63H74.84l-.5,2.37a3.64,3.64,0,0,0-.09.59c0,.49.21.7.74.7a3.12,3.12,0,0,0,.78-.13l-.34,1.63a8.62,8.62,0,0,1-1.31.14,2,2,0,0,1-2.23-2.06,3.73,3.73,0,0,1,.07-.68l.54-2.56H71.11l.35-1.63h1.39l.34-1.61,2.49-.66Z" transform="translate(0.18 0.15)" fill="#fff"/><path d="M82.65,50.42a4.06,4.06,0,0,0-1-.19c-1.09,0-1.56.68-1.87,2.1l-.63,2.94H76.74l1.39-6.82h2.15L80,49.69a2.63,2.63,0,0,1,2.25-1.4,3.29,3.29,0,0,1,.9.14Z" transform="translate(0.18 0.15)" fill="#fff"/><path d="M85.16,52.48c.1,1,.65,1.47,1.75,1.47a5.75,5.75,0,0,0,2.32-.52L89,55.11a8.49,8.49,0,0,1-2.51.39C84.3,55.5,83,54.24,83,52.31a4.35,4.35,0,0,1,1.22-3,4.21,4.21,0,0,1,3-1.07,2.65,2.65,0,0,1,2.92,2.93,6.41,6.41,0,0,1-.15,1.3Zm3.1-1.63a1.13,1.13,0,0,0-1.19-1.23c-.73,0-1.34.57-1.6,1.55h2.76A1.73,1.73,0,0,0,88.26,50.85Zm-1-5.22h2.47v.29l-2.18,1.61H86v-.16Z" transform="translate(0.18 0.15)" fill="#fff"/><path d="M97.67,53.55a11.66,11.66,0,0,0-.28,1.72h-2l.13-1a2.7,2.7,0,0,1-2.35,1.18,2,2,0,0,1-2.28-2c0-1.52,1.4-2.47,4-2.47A11,11,0,0,1,96,51a1.85,1.85,0,0,0,0-.23c0-.69-.45-1.06-1.31-1.06a4.83,4.83,0,0,0-2.22.52l.28-1.59a6.73,6.73,0,0,1,2.26-.4c2,0,3.16.86,3.16,2.17a6.26,6.26,0,0,1-.15,1.22Zm-2.6-1.41c-1.27,0-1.93.37-1.93,1A.79.79,0,0,0,94,54a1.88,1.88,0,0,0,1.74-1.8C95.51,52.14,95.29,52.14,95.07,52.14Z" transform="translate(0.18 0.15)" fill="#fff"/><path d="M103.32,46.1l-2,9.17H99l2-9.17Z" transform="translate(0.18 0.15)" fill="#fff"/><path d="M191.19,66c-1.27.4-1.28-.73-1.28-.73a.94.94,0,0,0,1.23-.75H188.9V63.49H190s-.18-1.41-1.22-1.41-1.1,1.07-.92,1.51c-.49.08-1.19-.76-1.19-1.74a1.87,1.87,0,0,1,1.87-1.92c1.41,0,2.47,1.64,2.47,3.56h.44a6.45,6.45,0,0,0-.1-1.77c-.31-1.33-1-2.12-1-3,0-1.57.92-1.82,1.67-3.19.76,1.37,1.7,1.62,1.67,3.19,0,.9-.67,1.69-1,3a6.23,6.23,0,0,0-.11,1.77H193c0-1.92,1.06-3.56,2.47-3.56a1.87,1.87,0,0,1,1.87,1.92c0,1-.7,1.82-1.19,1.74.18-.44,0-1.51-.92-1.51S194,63.49,194,63.49h1.06v1.06h-2.24a.94.94,0,0,0,1.23.75s0,1.13-1.28.73a.93.93,0,1,1-1.62,0Zm10.89-10.74H181.92V67.64h20.16Z" transform="translate(0.18 0.15)" fill="#fff"/><path d="M217.23,66c-1.27.4-1.28-.73-1.28-.73a.94.94,0,0,0,1.23-.75h-2.24V63.49H216s-.18-1.41-1.23-1.41-1.09,1.07-.92,1.51c-.48.08-1.19-.76-1.19-1.74a1.87,1.87,0,0,1,1.87-1.92c1.42,0,2.48,1.64,2.48,3.56h.43a6,6,0,0,0-.1-1.77c-.3-1.33-1-2.12-1-3,0-1.57.92-1.82,1.68-3.19.75,1.37,1.7,1.62,1.67,3.19,0,.9-.67,1.69-1,3a6.45,6.45,0,0,0-.1,1.77h.43c0-1.92,1.06-3.56,2.48-3.56a1.87,1.87,0,0,1,1.87,1.92c0,1-.71,1.82-1.19,1.74.18-.44,0-1.51-.92-1.51s-1.22,1.41-1.22,1.41h1.06v1.06h-2.25s.11.94,1.24.75c0,0,0,1.13-1.28.73a.93.93,0,1,1-1.62,0Zm10.88-10.74H208V67.64h20.15Z" transform="translate(0.18 0.15)" fill="#fff"/><path d="M191.19,84.29c-1.27.4-1.28-.74-1.28-.74,1.12.2,1.23-.74,1.23-.74H188.9V81.75H190s-.18-1.42-1.22-1.42-1.1,1.07-.92,1.52c-.49.08-1.19-.76-1.19-1.74a1.87,1.87,0,0,1,1.87-1.92c1.41,0,2.47,1.63,2.47,3.56h.44a6.45,6.45,0,0,0-.1-1.77c-.31-1.34-1-2.12-1-3,0-1.57.92-1.83,1.67-3.19.76,1.36,1.7,1.62,1.67,3.19,0,.9-.67,1.68-1,3a6.22,6.22,0,0,0-.11,1.77H193c0-1.93,1.06-3.56,2.47-3.56a1.87,1.87,0,0,1,1.87,1.92c0,1-.7,1.82-1.19,1.74.18-.45,0-1.52-.92-1.52S194,81.75,194,81.75h1.06v1.06h-2.24s.11.94,1.23.74c0,0,0,1.14-1.28.74a.92.92,0,1,1-1.62,0Zm10.89-10.74H181.92V85.9h20.16Z" transform="translate(0.18 0.15)" fill="#fff"/><path d="M217.23,84.29c-1.27.4-1.28-.74-1.28-.74,1.12.2,1.23-.74,1.23-.74h-2.24V81.75H216s-.18-1.42-1.23-1.42-1.09,1.07-.92,1.52c-.48.08-1.19-.76-1.19-1.74a1.87,1.87,0,0,1,1.87-1.92c1.42,0,2.48,1.63,2.48,3.56h.43a6,6,0,0,0-.1-1.77c-.3-1.34-1-2.12-1-3,0-1.57.92-1.83,1.68-3.19.75,1.36,1.7,1.62,1.67,3.19,0,.9-.67,1.68-1,3a6.45,6.45,0,0,0-.1,1.77h.43c0-1.93,1.06-3.56,2.48-3.56a1.87,1.87,0,0,1,1.87,1.92c0,1-.71,1.82-1.19,1.74.18-.45,0-1.52-.92-1.52s-1.22,1.42-1.22,1.42h1.06v1.06h-2.25s.11.94,1.24.74c0,0,0,1.14-1.28.74a.92.92,0,1,1-1.62,0Zm10.88-10.74H208V85.9h20.15Z" transform="translate(0.18 0.15)" fill="#fff"/></svg>